<svg xmlns="http://www.w3.org/2000/svg" viewBox="0 0 24 24" fill="none" stroke="#16a34a" stroke-width="2" stroke-linecap="round" stroke-linejoin="round">
  <path d="M12 22c5.523 0 10-4.477 10-10S17.523 2 12 2 2 6.477 2 12s4.477 10 10 10z" stroke="none" fill="#dcfce7"/>
  <path d="M12 22c5.523 0 10-4.477 10-10S17.523 2 12 2 2 6.477 2 12s4.477 10 10 10z" stroke="#16a34a" stroke-width="1.5"/>
  <path d="M12 18v-8" stroke="#16a34a" stroke-width="2"/>
  <path d="M8 14s1.5-2 4-2 4 2 4 2" stroke="#16a34a" stroke-width="2"/>
  <path d="M9 10a5 5 0 0 1 6 0" stroke="#16a34a" stroke-width="2"/>
</svg>
